<svg id="visual" viewBox="0 0 900 600" width="900" height="600" xmlns="http://www.w3.org/2000/svg" xmlns:xlink="http://www.w3.org/1999/xlink" version="1.1"><rect x="0" y="0" width="900" height="600" fill="#DDD"></rect><path d="M0 327L21.5 314.5C43 302 86 277 128.8 274.5C171.7 272 214.3 292 257.2 291.3C300 290.7 343 269.3 385.8 255.3C428.7 241.3 471.3 234.7 514.2 247.3C557 260 600 292 642.8 292.5C685.7 293 728.3 262 771.2 245.7C814 229.3 857 227.7 878.5 226.8L900 226L900 0L878.5 0C857 0 814 0 771.2 0C728.3 0 685.7 0 642.8 0C600 0 557 0 514.2 0C471.3 0 428.7 0 385.8 0C343 0 300 0 257.2 0C214.3 0 171.7 0 128.8 0C86 0 43 0 21.5 0L0 0Z" fill="#fa7268"></path><path d="M0 180L21.5 186C43 192 86 204 128.8 203.3C171.7 202.7 214.3 189.3 257.2 188.7C300 188 343 200 385.8 215.8C428.7 231.7 471.3 251.3 514.2 252.5C557 253.7 600 236.3 642.8 231.5C685.7 226.7 728.3 234.3 771.2 226C814 217.7 857 193.3 878.5 181.2L900 169L900 0L878.5 0C857 0 814 0 771.2 0C728.3 0 685.7 0 642.8 0C600 0 557 0 514.2 0C471.3 0 428.7 0 385.8 0C343 0 300 0 257.2 0C214.3 0 171.7 0 128.8 0C86 0 43 0 21.5 0L0 0Z" fill="#ef5f67"></path><path d="M0 140L21.5 146.2C43 152.3 86 164.7 128.8 174C171.7 183.3 214.3 189.7 257.2 183C300 176.3 343 156.7 385.8 154.8C428.7 153 471.3 169 514.2 176.8C557 184.7 600 184.3 642.8 182.7C685.7 181 728.3 178 771.2 180C814 182 857 189 878.5 192.5L900 196L900 0L878.5 0C857 0 814 0 771.2 0C728.3 0 685.7 0 642.8 0C600 0 557 0 514.2 0C471.3 0 428.7 0 385.8 0C343 0 300 0 257.2 0C214.3 0 171.7 0 128.8 0C86 0 43 0 21.5 0L0 0Z" fill="#e34c67"></path><path d="M0 123L21.5 122.3C43 121.7 86 120.3 128.8 119.7C171.7 119 214.3 119 257.2 117C300 115 343 111 385.8 107.5C428.7 104 471.3 101 514.2 104.3C557 107.7 600 117.3 642.8 122.2C685.7 127 728.3 127 771.2 127C814 127 857 127 878.5 127L900 127L900 0L878.5 0C857 0 814 0 771.2 0C728.3 0 685.7 0 642.8 0C600 0 557 0 514.2 0C471.3 0 428.7 0 385.8 0C343 0 300 0 257.2 0C214.3 0 171.7 0 128.8 0C86 0 43 0 21.5 0L0 0Z" fill="#d53867"></path><path d="M0 86L21.5 85.3C43 84.7 86 83.3 128.8 80C171.7 76.7 214.3 71.3 257.2 74.2C300 77 343 88 385.8 91.7C428.7 95.3 471.3 91.7 514.2 83.5C557 75.3 600 62.7 642.8 65.3C685.7 68 728.3 86 771.2 88.2C814 90.3 857 76.7 878.5 69.8L900 63L900 0L878.5 0C857 0 814 0 771.2 0C728.3 0 685.7 0 642.8 0C600 0 557 0 514.2 0C471.3 0 428.7 0 385.8 0C343 0 300 0 257.2 0C214.3 0 171.7 0 128.8 0C86 0 43 0 21.5 0L0 0Z" fill="#c62368"></path></svg>